<svg xmlns="http://www.w3.org/2000/svg" width="32" height="32" viewBox="0 0 32 32">
  <rect width="32" height="32" rx="6" fill="#4F46E5" />
  <circle cx="16" cy="16" r="10" fill="white" opacity="0.2" />
  <path d="M16 8C11.6 8 8 11.6 8 16C8 20.4 11.6 24 16 24C20.4 24 24 20.4 24 16C24 11.6 20.4 8 16 8ZM16 22C12.7 22 10 19.3 10 16C10 12.7 12.7 10 16 10C19.3 10 22 12.7 22 16C22 19.3 19.3 22 16 22Z" fill="white" />
  <path d="M16 12C14.9 12 14 12.9 14 14V18C14 19.1 14.9 20 16 20C17.1 20 18 19.1 18 18V14C18 12.9 17.1 12 16 12Z" fill="white" />
</svg> 